<?xml version="1.0" encoding="utf-8"?>
<!-- Generator: Adobe Illustrator 24.0.1, SVG Export Plug-In . SVG Version: 6.00 Build 0)  -->
<svg version="1.1" id="Layer_1" xmlns:svgjs="http://svgjs.com/svgjs"
	 xmlns="http://www.w3.org/2000/svg" xmlns:xlink="http://www.w3.org/1999/xlink" x="0px" y="0px" viewBox="0 0 512 512"
	 style="enable-background:new 0 0 512 512;" xml:space="preserve">
<style type="text/css">
	.st0{fill:#8592AD;}
</style>
<g>
	<g id="XMLID_103_">
		<path id="XMLID_104_" class="st0" d="M170.4,0h-48.8C101.4,0,85,16.4,85,36.6v48.8c0,20.2,16.4,36.6,36.6,36.6h48.8
			c20.2,0,36.6-16.4,36.6-36.6V36.6C207,16.4,190.6,0,170.4,0z"/>
		<path id="XMLID_105_" class="st0" d="M170.4,195h-48.8c-20.2,0-36.6,16.4-36.6,36.6v48.8c0,20.2,16.4,36.6,36.6,36.6h48.8
			c20.2,0,36.6-16.4,36.6-36.6v-48.8C207,211.4,190.6,195,170.4,195z"/>
		<path id="XMLID_106_" class="st0" d="M170.4,390.1h-48.8c-20.2,0-36.6,16.4-36.6,36.6v48.8c0,20.2,16.4,36.6,36.6,36.6h48.8
			c20.2,0,36.6-16.4,36.6-36.6v-48.8C207,406.5,190.6,390.1,170.4,390.1z"/>
	</g>
	<script></script>
</g>
<g>
	<g id="XMLID_1_">
		<path id="XMLID_4_" class="st0" d="M378.4,0h-48.8C309.4,0,293,16.4,293,36.6v48.8c0,20.2,16.4,36.6,36.6,36.6h48.8
			c20.2,0,36.6-16.4,36.6-36.6V36.6C415,16.4,398.6,0,378.4,0z"/>
		<path id="XMLID_3_" class="st0" d="M378.4,195h-48.8c-20.2,0-36.6,16.4-36.6,36.6v48.8c0,20.2,16.4,36.6,36.6,36.6h48.8
			c20.2,0,36.6-16.4,36.6-36.6v-48.8C415,211.4,398.6,195,378.4,195z"/>
		<path id="XMLID_2_" class="st0" d="M378.4,390.1h-48.8c-20.2,0-36.6,16.4-36.6,36.6v48.8c0,20.2,16.4,36.6,36.6,36.6h48.8
			c20.2,0,36.6-16.4,36.6-36.6v-48.8C415,406.5,398.6,390.1,378.4,390.1z"/>
	</g>
	<script></script>
</g>
</svg>
