<?xml version="1.0"?>
<svg xmlns="http://www.w3.org/2000/svg" xmlns:xlink="http://www.w3.org/1999/xlink" xmlns:svgjs="http://svgjs.com/svgjs" version="1.1" width="512" height="512" x="0" y="0" viewBox="0 0 515.555 515.555" style="enable-background:new 0 0 512 512" xml:space="preserve" class=""><g><path xmlns="http://www.w3.org/2000/svg" d="m303.347 18.875c25.167 25.167 25.167 65.971 0 91.138s-65.971 25.167-91.138 0-25.167-65.971 0-91.138c25.166-25.167 65.97-25.167 91.138 0" fill="#8592ad" data-original="#000000" style="" class=""/><path xmlns="http://www.w3.org/2000/svg" d="m303.347 212.209c25.167 25.167 25.167 65.971 0 91.138s-65.971 25.167-91.138 0-25.167-65.971 0-91.138c25.166-25.167 65.97-25.167 91.138 0" fill="#8592ad" data-original="#000000" style="" class=""/><path xmlns="http://www.w3.org/2000/svg" d="m303.347 405.541c25.167 25.167 25.167 65.971 0 91.138s-65.971 25.167-91.138 0-25.167-65.971 0-91.138c25.166-25.167 65.97-25.167 91.138 0" fill="#8592ad" data-original="#000000" style="" class=""/><script/></g></svg>
